<?xml version="1.0" encoding="utf-8"?>
<!-- Generator: Adobe Illustrator 24.0.1, SVG Export Plug-In . SVG Version: 6.00 Build 0)  -->
<svg version="1.1" id="Layer_1" xmlns="http://www.w3.org/2000/svg" xmlns:xlink="http://www.w3.org/1999/xlink" x="0px" y="0px"
	 viewBox="0 0 401 401" style="enable-background:new 0 0 401 401;" xml:space="preserve">
<style type="text/css">
	.st0{fill:url(#SVGID_1_);}
	.st1{fill:#FFAEBE;}
	.st2{fill:#FF7992;}
	.st3{fill:#FFCB99;}
	.st4{fill:#DFA46B;}
	.st5{fill:#60AD91;}
	.st6{fill:#863864;}
	.st7{fill:#DFB186;}
	.st8{fill:#C19163;}
	.st9{fill:#DF482D;}
	.st10{fill:#FFECC7;}
	.st11{fill:#FFD5A0;}
	.st12{fill:#C846D7;}
</style>
<g>
	<linearGradient id="SVGID_1_" gradientUnits="userSpaceOnUse" x1="200.3765" y1="378.8034" x2="200.3765" y2="21.9494">
		<stop  offset="0" style="stop-color:#FFD2E3"/>
		<stop  offset="1" style="stop-color:#FF9EC3"/>
	</linearGradient>
	<path class="st0" d="M378.7,80.7L327,373.8c-0.6,3.3-3.7,5.5-7,4.9l-46.1-8.1l-0.1,0l-7.7-1.4l-0.6-0.1l-12.8-2.3l-1-0.7l0,0
		l-16.5-2.9l-60.7-10.7l-1.9-0.3l-13.8-2.4h0l-0.8,0.4l-24.2-4.3l-2.6-0.5l-4.5-0.8l-13.3-2.3l-4.5-0.8l-3.8-0.7L26.9,327
		c-3.3-0.6-5.4-3.7-4.9-7l14-79.3l0.5-2.9l0.6-3.5l0.6-3.6l1.1-6.2l1.4-7.9l0.9-4.9l0.5-2.8l3-17.2l3.1-17.8l25.9-147
		c0.6-3.3,3.7-5.4,7-4.9l60.8,10.7l6.8,1.2l23.1,4.1l7.6,1.3l29.2,5.1l7.8,1.4l26.9,4.7l8.2,1.4l18.7,3.3l8.8,1.5l95.2,16.8
		C377.1,74.3,379.3,77.4,378.7,80.7z"/>
	<g>
		<defs>
			<path id="SVGID_2_" d="M80.7,22l293.2,51.7c3.3,0.6,5.4,3.7,4.9,7L327,373.8c-0.6,3.3-3.7,5.4-7,4.9L26.9,327
				c-3.3-0.6-5.4-3.7-4.9-7L73.7,26.9C74.3,23.6,77.4,21.5,80.7,22z"/>
		</defs>
		<clipPath id="SVGID_3_">
			<use xlink:href="#SVGID_2_"  style="overflow:visible;"/>
		</clipPath>
		<g transform="matrix(1 0 0 1 -1.907349e-06 0)" style="clip-path:url(#SVGID_3_);">
			
				<image style="overflow:visible;" width="3840" height="1800" xlink:href="C:\Users\ASUS\Pictures\SVG Collection\Shapes\footer-pattern-bg.png"  transform="matrix(0.1481 8.574221e-02 -8.574221e-02 0.1481 9.5527 -145.8936)">
			</image>
		</g>
	</g>
</g>
<path class="st1" d="M281.5,327.5l-3.8,4.1l3.1-0.2l17.5-1.3l31.8-2.4l-35.2,46l-20.6-3.6l-0.3,0l-7.7-1.3l-11.5-2l-0.2,0l-2.8-0.5
	l0,0l-16.5-2.9l-60.7-10.7l-1.9-0.3l-13.8-2.4h0l-24.9-4.4l-2.8-0.5l-4.2-0.7l-13.6-2.4l-4.5-0.8l-3.8-0.7l-50.7-8.9L37,276
	l47.9,21.6l-9.4-22.3L68.3,258h0l-0.8-1.8l-14-33.2l-2.4-5.8l-2.7-6.4l8.6,3.9l6.2,2.8l11.6,5.3l4,1.8l1,0.5l29.6,13.6l0.5,0.3
	l-1.4-5.9c0,0,0,0,0,0l-10.8-46.3l-1.7-7.1h0l-15.6-67.2l60.2,90.2l-1.6-42.9l-0.4-10.6l-0.9-24.3l-0.7-19l45.1,51.6l16.4-18.6
	l4.4-5l0.9-1.1l11.5-13.1l2.6,6.6l14.7,37.3l1.2,2.9l26.1-14.4l0,0v0l33.9-18.6l-19.9,49.1l-3.3,8.2v0l-1.4,3.4h0l-1.6,4v0l-1.6,3.8
	l-0.6,1.4l-0.6,1.5l-0.6,1.4l-6.9,17l14.8-10.9l3.6-2.6v0l2.9-2.1l3.5-2.6l9.7-7.1l4.4-3.2l48.6-35.6l-30.9,47.4l-5.3,8.1l-7.4,11.4
	l-8.7,13.3l-3.6,5.5l-4.4,6.7L274.1,268l26.2-2.1l10.5-0.8l30.8-2.5l-21.2,22.9c0,0,0,0,0,0L281.5,327.5z"/>
<path class="st2" d="M331.7,300.2c-0.1,0.2-0.1,0.5-0.2,0.7c0,0.1-0.1,0.2-0.1,0.3c-0.1,0.4-0.3,0.7-0.5,1c-0.1,0.1-0.1,0.2-0.2,0.3
	c-0.5,1-1.2,1.8-2,2.7c-0.5,0.6-1.1,1.1-1.8,1.6c-0.2,0.1-0.3,0.3-0.5,0.4c-0.5,0.4-0.9,0.8-1.4,1.2c0,0,0,0-0.1,0.1
	c-0.9,0.9-1.4,1.5-1.4,1.5c-2.5,3.7-6,6.4-9.8,8.5c-0.4,0.2-0.9,0.4-1.3,0.6c-0.4,0.1-0.8,0.2-1.1,0.3c0,0-0.1,0-0.1,0
	c-0.5,0.1-1.1,0.2-1.6,0.1c-0.3,0-0.7,0-1,0c-0.3,0-0.6,0.1-0.9,0.1c-1.8,0.4-3.1,1.4-4.2,3c-1.7,2.5-3.5,4.9-5.2,7.3
	c-1.4,2-2.9,4-4.3,6c-0.5,0.8-12.2,21.3-19.8,34c-0.1,0.2-0.2,0.3-0.3,0.5c-0.1,0.1-0.1,0.2-0.2,0.3c0,0,0,0,0,0l-7.6-1.7l-0.6-0.1
	l-12.6-3l-1.1,0.1l0,0l-0.3-0.2l-6.3-4.6l-6.1-4.5l-1.5-1.1l-0.7-0.5c0,0,0.2-0.2,0.6-0.5c0.6-0.5,1.5-1.3,2.8-2.4
	c1.1-1,2.5-2.2,4.1-3.6c9-7.9,23.2-20.4,26-23.4c0.2-0.2,0.4-0.4,0.6-0.6c0.6-0.6,1.1-1.2,1.6-1.6c0.1-0.1,0.2-0.2,0.2-0.2
	c0.1-0.2,0.3-0.3,0.4-0.4c0.6-0.6,1-1,1.3-1.3l0.2-0.2c2.9-2.7,6-5.4,8.8-8.2c0.2-0.2,0.4-0.4,0.6-0.7c0.2-0.2,0.4-0.4,0.6-0.6
	c0.3-0.3,0.5-0.6,0.7-0.9c1.1-1.6,2-3.3,2.6-5.2c0.1-0.2,0.1-0.4,0.2-0.6c0.2-0.7,0.2-1.6,0.1-2.4c0-0.4-0.1-0.8-0.2-1.2
	c-0.2-1.2-0.4-2.3-0.5-3.5c0,0,0-0.1,0-0.2c0-0.1,0-0.3,0-0.4c0.1-0.4,0.3-0.8,0.5-1.2v0c0.5-0.6,0.9-1.2,1.4-1.8c0,0,0-0.1,0.1-0.1
	c0.1-0.1,0.2-0.2,0.3-0.4c0.4-0.5,0.7-1,1.1-1.4c0-0.1,0.1-0.1,0.1-0.2c0.8-1,1.6-2,2.4-3c0.2-0.2,0.3-0.4,0.5-0.6
	c0.1-0.1,0.2-0.3,0.3-0.4c0.3-0.4,0.6-0.8,0.9-1.2c0.6-0.8,1.5-1.3,2.5-1.3c0.1,0,0.1,0,0.2,0c0.9,0.1,1.9,0.1,2.8,0.2
	c1-2.9,2.3-5.5,5.1-7c0.2-0.1,0.4-0.2,0.6-0.3c0.2-0.1,0.4-0.2,0.6-0.3c1.4-0.5,2.9-0.4,4.1,0.1c0.2,0.1,0.4,0.2,0.5,0.3
	s0.4,0.2,0.5,0.3c0.1,0.1,0.2,0.1,0.3,0.2c0.3,0.3,0.6,0.5,0.9,0.9c0.1,0.1,0.1,0.2,0.2,0.3c0.4,0.6,0.8,1.3,1,2.1c0,0,0,0,0,0
	c0,0,0,0,0,0c0,0,0,0,0.1,0c0.6-0.3,1.2-0.4,1.8-0.4c0.1,0,0.3,0,0.4,0c0.6,0.1,1.2,0.4,1.7,0.8c0,0,0,0,0,0
	c0.1,0.1,0.3,0.3,0.4,0.5c0.1,0.1,0.2,0.2,0.2,0.3c0.1,0.1,0.1,0.1,0.2,0.2c0.2,0.3,0.4,0.7,0.6,1.1c0.1,0.2,0.2,0.4,0.3,0.6
	c0,0,0,0,0,0c0.3,1,0.3,1.9,0.3,3c0,0.4-0.1,0.8-0.2,1.3c0.4-0.2,0.7-0.3,1-0.5c0.1,0,0.2-0.1,0.3-0.1c1.1-0.5,2.2-0.6,3-0.3
	c0.1,0,0.2,0.1,0.4,0.1c0.9,0.5,1.5,1.5,1.8,2.8c0.2,1.1,0.1,2.2,0.1,3.4h0.2c0.1,0,0.2,0,0.3,0C330.4,295,332.4,297.3,331.7,300.2z
	"/>
<g>
	<path class="st3" d="M334.9,238.9c-0.8,1.7-1.5,3.4-2.2,5.1c-3.1,4.1-6.4,7.9-11.1,10.2c-0.7,0.3-1.1,1.2-1.5,1.9
		c-3.2,5.7-7.2,10.7-11.9,14.5c-4.4,3.5-9.5,6.2-15.6,7.7c-4.1,1-7.9,2.5-10.1,6.9c-0.9,1.8-5.3,12.1-10.9,25.3
		c-1.9,4.6-4,9.4-6.1,14.4c-0.5,1.2-1,2.4-1.5,3.6c-5.6,13.2-11.4,26.7-15.4,36.1c-0.1,0.2-0.1,0.3-0.2,0.5c0,0.1-0.1,0.2-0.1,0.3
		c0,0,0,0,0,0l0,0l-7.6-3.7l-10-4.8l-3-1.5l-11-5.3l-1.4-0.7l-0.5-0.3l-23-11.1l-3.9-1.9l-2.4-1.2c12.2-18.1,33-49.7,43.4-65.1
		c3-4.4,5.1-7.5,5.9-8.5c0.3-0.3,0.5-0.7,0.7-1c0.3-0.5,0.6-0.9,0.8-1.4c0.2-0.4,0.5-0.9,0.7-1.4c0.1-0.1,0.1-0.3,0.2-0.4
		c0.1-0.2,0.2-0.5,0.3-0.7c0.1-0.2,0.1-0.3,0.1-0.5c0.1-0.2,0.1-0.3,0.2-0.5c0.1-0.2,0.1-0.5,0.2-0.7c0.1-0.3,0.1-0.6,0.2-0.9
		c0,0,0-0.1,0-0.1c0-0.3,0.1-0.5,0.1-0.8c0-0.1,0-0.1,0-0.2c0-0.3,0.1-0.5,0.1-0.8c0-0.2,0-0.4,0-0.6c0-2.5-0.5-5-1.5-7.6
		c-0.8-2.1-1.7-4.2-2.5-6.3c-0.9-2.2-1.8-4.4-2.7-6.6c-1-2.3-1.3-4.5,0-6.7c2.4-4.2,4.7-8.4,7.1-12.5c2.3-4.1,4.7-8.2,7.1-12.2
		c1.1-1.9,3-2.4,5-2.5c0.6,0,1.2,0,1.7,0c2,0,2.7-0.9,3.6-2.8c2-4.4,4.1-9,7.1-12.8c6.8-8.6,18.9-8.2,27.1-0.5
		c0.4,0.3,0.7,0.7,1,1.2c1.1,1.7,1.7,4,2.6,6c7.9-0.5,13.9,3.6,16.3,10.9c0.7,2,1.1,4.2,1.2,6.6c6.9-0.9,12.3,2.3,13.4,8.9
		c0.3,1.6,0.3,3.4,0,5.4c0.5,0.1,1.1,0.2,1.6,0.2c5.8,0.8,9.4,4.5,9.6,10.4C335.8,233.2,335.2,236,334.9,238.9z"/>
	<path class="st4" d="M235.2,260.4l-3.1,10.3l-44.4,65.5l27,13c14.9-28,46.3-84.7,46.8-84.1c-5.1-2.5-21.4-20.6-21.4-20.6l-1.9,6.4
		C238.1,254.2,237.2,257.4,235.2,260.4z"/>
	<path class="st4" d="M303.5,253.9l-39.6-4.8c0,0,20.3-19.1,13.5-25.4s2.3-10.2,2.3-10.2l8.5-8.2l34.1,44.2L303.5,253.9z"/>
	<path class="st5" d="M273.1,197.2c0,0,4.5,6.4,8.3,7c3.8,0.6,11-3.1,11-3.1l-1.2-4.4l-14-1.3L273.1,197.2z"/>
	<path class="st6" d="M335.6,230.4c-0.2-5.9-3.8-9.6-9.6-10.4c-0.5-0.1-1.1-0.2-1.6-0.2c0.3-2,0.3-3.8,0-5.4
		c-1.1-6.6-6.5-9.8-13.4-8.9c-0.1-2.4-0.5-4.6-1.2-6.6c-2.4-7.3-8.5-11.5-16.3-10.9c-1-2-1.6-4.3-2.6-6c-0.3-0.4-0.6-0.8-1-1.2
		c-8.2-7.7-20.3-8.1-27.1,0.5c-3,3.8-5.1,8.3-7.1,12.8c-0.8,1.9-1.5,2.8-3.6,2.8c-0.6,0-1.2,0-1.7,0c-2,0.1-3.8,0.6-5,2.5
		c-2.4,4.1-4.8,8.1-7.1,12.2c-2.4,4.2-4.8,8.3-7.1,12.5c-1.2,2.2-0.9,4.4,0,6.7c0.9,2.2,1.8,4.4,2.7,6.6c0.8,2.1,1.7,4.2,2.5,6.3
		c0.1,0.3,0.2,0.6,0.3,0.8c0.1,0.3,0.2,0.5,0.3,0.8c0,0,0,0,0,0c0,0,0,0.1,0,0.1c0,0.1,0,0.1,0,0.2c0.1,0.3,0.2,0.6,0.3,1
		c0.1,0.3,0.2,0.6,0.2,0.9c0.1,0.6,0.2,1.2,0.3,1.8c0,0.3,0.1,0.6,0.1,0.9c0,0.3,0,0.6,0,0.9c0,0,0,0.1,0,0.1l0,0c0,0.2,0,0.4,0,0.6
		c0,0,0,0,0,0.1c0,0,0,0,0,0c0,0,0,0.1,0,0.1c0,0.2,0,0.4,0,0.7c0,0.1,0,0.1,0,0.2c0,0,0,0,0,0.1c0,0,0,0.1,0,0.1c0,0,0,0,0,0
		c0,0.1,0,0.2,0,0.3c0,0,0,0,0,0.1l0,0c0,0,0,0,0,0l0,0c0,0,0,0.1,0,0.1l0,0.1c0,0,0,0.1,0,0.1c-0.1,0.3-0.1,0.6-0.2,0.9
		c-0.1,0.2-0.1,0.5-0.2,0.7c-0.1,0.2-0.1,0.3-0.2,0.5c0,0.2-0.1,0.3-0.1,0.5c-0.1,0.1-0.1,0.3-0.1,0.4c0,0.1-0.1,0.2-0.1,0.2
		c0,0,0,0.1,0,0.1c-0.1,0.1-0.1,0.3-0.2,0.4c-0.2,0.5-0.4,0.9-0.7,1.4c-0.3,0.5-0.5,0.9-0.8,1.4c-0.2,0.3-0.5,0.7-0.7,1
		c-0.8,1-2.9,4.1-5.9,8.5c-10.4,15.4-31.2,47-43.4,65.1l2.4,1.2l3.9,1.9c9.3-14,23.8-36,34.2-51.9c3.9-6,7.3-11,9.7-14.5l0,0
		c1.6-2.3,2.7-3.9,3.1-4.5c4.3-5.5,6.7-11.9,5-18.8c0,0,0-0.1,0-0.1c-0.7-2.7-1.5-5.4-2.5-8.1c-1.2-3.6-2.6-7.3-3.7-10.9
		c-0.4-1.2-0.4-2.8,0.1-3.8c3.3-5.9,6.9-11.6,10.1-17.5c0.2-0.5,0.5-0.9,0.8-1.3c1.7-2.4,4-3.5,7.3-3.7c4.5-0.3,8.9-1.5,13.4-2.2
		c1.6-0.3,3.2-0.5,4.9-0.8l-0.4,0.8c0.9,0.7,1.8,1.5,2.6,2.2c1.2,1.1,2.4,2,3.8,2.4c2.5,0.8,5.5,0,8.1-0.1c-0.3,1.3-0.8,2.6-1.6,3.7
		l0,0c-1.5,2.2-4,3.9-6.9,4.5l0,0c-1.5,0.3-3.1,0.5-4.6,0.9c-3.9,1.2-5.7,4.6-4.4,8.5c0.4,1.1,0.8,2.1,1.2,3.1
		c2.6,6.5-0.4,15.4-6.1,19.4c-1,0.7-2.1,2.6-1.9,3.7c0.4,2,2.4,2,4.1,1.5c0.7-0.2,1.3-0.4,1.9-0.7c2.4-1.1,4.2-2.9,5.3-5.4
		c1.4-3.2,2.5-6.5,3.7-9.8c3.5,0.3,6.2,1.5,7.2,5.6c0.7,2.9,2.8,4.7,5.3,6c0.7,0.4,1.4,0.7,2.1,1c0.8,0.3,1.9,0.7,2.2,1.4
		c1.3,2.3,3,3.9,5,5l0,0c1.7,0.9,3.5,1.5,5.5,2c2.3,0.6,4.8,0.7,7.4,1.1c-4.7,5.5-9.9,9.7-16.2,12.3c-1.5,0.6-3.1,1.1-4.7,1.6
		c-2.9,0.7-5.7,1.6-8.4,2.8c-4.4,1.9-8,4.6-9,9.8c-0.1,0.7-0.6,1.3-1.1,1.9c-1.4,1.9-7.4,15.6-14.4,31.9
		c-6.4,15.1-13.7,32.4-18.7,44.5c-0.1,0.2-0.1,0.3-0.2,0.5c0,0,0,0,0,0l7,3.4l0,0c0,0,0,0,0,0c0-0.1,0.1-0.2,0.1-0.3
		c0.1-0.2,0.1-0.3,0.2-0.5c4-9.4,9.8-22.9,15.4-36.1c0.5-1.2,1-2.4,1.5-3.6c2.1-5,4.2-9.8,6.1-14.4c5.6-13.1,10-23.5,10.9-25.3
		c2.2-4.4,5.9-5.9,10.1-6.9c6-1.5,11.2-4.1,15.6-7.7c4.8-3.8,8.7-8.8,11.9-14.5c0.4-0.7,0.8-1.6,1.5-1.9c4.7-2.3,8-6.1,11.1-10.2
		c0.7-1.7,1.5-3.4,2.2-5.1C335.2,236,335.8,233.2,335.6,230.4z M278.9,199.1c3.5-0.7,6.8-0.7,10.4,0.7c-5.5,3.7-8.6,3.9-11.3,0.5
		c-0.2-0.3-0.5-0.6-0.7-0.9C277.9,199.4,278.4,199.2,278.9,199.1z M261.1,195.6c-0.5,0.1-1.1,0.1-1.6,0.2c-0.2-0.3-0.5-0.5-0.7-0.8
		c3.4-3.9,6.3-8.2,10.3-11.4c5.2-4.3,11.8-2.4,16.1,1.7c0.8,0.8,0.8,2.4,0.8,4l0,0c0,0.8,0,1.5,0,2.2c0,0.2-0.8,0.6-1.3,0.7
		c-0.3,0-0.6,0.1-0.8,0.1l0,0C276.2,193.4,268.6,194.5,261.1,195.6z M289.6,226.9c-4.4,3.7-8.1,3.3-10.8-0.7
		c-0.5-0.7-0.9-1.6-1.3-2.6c-0.4-1-0.9-2-1.4-3.3c1.5-0.4,2.7-0.7,3.9-0.9c5.6-0.9,9.7-4.5,12.2-9.1c0.8-1.4,1.4-2.9,1.8-4.5
		c0.6-2.1,0.9-4.2,0.9-6.2c0-1.5-1.1-3-2-4.4c-1.1-1.6-0.7-3,1.2-3.4c0.6-0.1,1.3-0.1,1.9,0c4.1,0.5,7.8,4.8,9,9.3
		c0.5,1.9,0.6,3.9,0,5.6c-1.5,4.4-3.9,8.3-6.7,11.7C295.7,221.5,292.7,224.3,289.6,226.9z M296.2,241.5c-3.5-1-6.6-3.7-6.9-7.2
		c4.7-3.4,8.9-7.1,12.5-11.4c3.6-4.3,6.5-9.2,8.5-15c2,0.9,3.8,1.5,5.5,2.5c2.9,1.7,4.1,4.4,2.9,7.5c-0.4,1.1-0.8,2.2-1.2,3.2
		c-1.9,4.6-4,9-7,13c-1.6,2.1-3.5,4.2-5.7,6C302.4,242.1,299.2,242.4,296.2,241.5z M322.9,246.1c-0.7,0.5-1.5,1-2.3,1.4
		c-4.9,2.6-10.2,2.9-16.2-0.2c4.2-2.1,7.3-4.9,9.7-8.1c3-4,5.2-8.7,7.4-13.2c1-2.1,2-2.3,4.1-1.7c3,1,4.9,2.7,5,5.9
		C331,236.8,328.5,242.3,322.9,246.1z"/>
</g>
<g>
	<path class="st7" d="M184.6,337.5l-8.5,4.1l-2.3,1.1l-14.8,7.1h0l-0.8,0.4l-24.2-4.3l-2.6-0.5l-4.5-0.8l-13.3-2.3l-4.5-0.8
		l-3.8-0.7c-0.1-0.2-0.2-0.4-0.3-0.6c-11.9-26-25.3-54.9-27.5-60.6c-0.6-1.5-1.3-3-2-4.4c-1.3-2.6-2.7-5.2-4-7.8
		c-1.8-3.4-4.8-5.4-8.5-6.2c-10.9-2.4-18.6-9.2-24.3-18.4c-0.8-1.3-1.5-1.9-2.7-2c-0.4,0-0.8,0-1.2,0c-7.2,1-12.8-1.9-17.2-7.5
		c-3.9-5-4.2-12-0.8-17.2c1.5-2.3,2.5-2.8,4.7-2.7c0.3-3.3,0.3-6.6,1.1-9.7c0.9-3.3,3.4-5.4,7.1-6.3c0.4-7.4,5-11,11.5-13.2
		c0.8-0.3,1.6-1.4,1.9-2.3c1.1-3.2,2.6-5.9,4.6-8.1c2.2-2.4,4.9-4.2,8.4-5.4c4.9-1.7,9-0.5,12.7,4.1c1.2,1.5,2.5,2.1,4.4,2.5
		c7.7,1.5,15.3,3,22.9,4.6h0c2.3,0.5,4.5,0.9,6.7,1.4c5.4,1.2,7.4,5.7,8.6,10.3c1.2,4.3,1.5,8.9,2.5,13.4c0.8,3.7,2.2,7.3,3.1,10.9
		c0.5,2,1.3,4.2,1,6.2c-1.5,11.1,1.3,20.9,8,29.9c1.6,2.1,5.2,7.4,10.1,14.5c1.9,2.7,3.9,5.7,6.1,8.9c10.1,14.8,22.9,33.7,33.3,49
		C179,329.1,182,333.6,184.6,337.5z"/>
	<path class="st8" d="M126.9,344.7l-13.3-2.3l-4.5-0.8l-0.3-0.6l-38.4-82.4c0,0-0.8-0.2-2.2-0.5c-3.6-0.8-10.6-2.5-14.5-3.8
		c-5.4-1.8-12.4-12.1-12.4-12.1s-2.3-2.6-4.9-4.3c-2.2-1.4-4.5-2.1-5.9-0.1c0,0-0.8-1.2-1.6-3c-2-4-4.6-10.6-0.3-11.7
		c1.8-0.4,3.6-1.5,5.2-2.9c2-1.7,3.8-3.8,5-5.3c1.2-1.5,1.8-2.6,1.8-2.6l0.5-0.4l1.7-1.4l9.4-7.6l4.4-3.6l5-2.4l4-1.9l10.6,8.2
		l5.4,1.4l1.4,7c0,0-2.6,6.8-4.2,13.1c-1,3.9-1.5,7.6-0.6,9.2c0.8,1.5,2.6,3.5,4.8,5.5c4.1,3.7,9.6,7.1,12.9,5.9
		c-0.9,1,17.8,52.5,31.9,90.7c1.1,3,2.2,6,3.3,8.8c0.1,0.2,0.1,0.4,0.2,0.6L126.9,344.7z"/>
	<path class="st9" d="M59.8,182.9c-0.2,0.4,14.2,9.6,15.8,7.4c1.6-2.2,5.5-10.5,5.5-10.5S65,172.1,59.8,182.9z"/>
	<path class="st6" d="M175.7,324.3c-10.3-15.3-23.2-34.2-33.3-49c-2.2-3.2-4.3-6.2-6.1-8.9c-4.9-7.1-8.5-12.3-10.1-14.5
		c-6.7-9-9.5-18.8-8-29.9c0.3-2-0.5-4.2-1-6.2c-1-3.7-2.3-7.2-3.1-10.9c-1-4.4-1.2-9-2.5-13.4c-1.3-4.6-3.3-9.1-8.6-10.3
		c-2.2-0.5-4.5-1-6.7-1.4h0c-7.6-1.6-15.3-3.1-22.9-4.6c-1.8-0.4-3.2-1-4.4-2.5c-3.8-4.6-7.8-5.8-12.7-4.1c-3.4,1.2-6.2,3-8.4,5.4
		c-2,2.2-3.6,4.9-4.6,8.1c-0.3,0.9-1.1,2-1.9,2.3c-6.5,2.1-11.2,5.8-11.5,13.2c-3.7,0.8-6.2,2.9-7.1,6.3c-0.8,3.1-0.8,6.4-1.1,9.7
		c-2.3-0.1-3.2,0.4-4.7,2.7c-3.4,5.2-3.1,12.2,0.8,17.2c4.4,5.6,10,8.6,17.2,7.5c0.5-0.1,0.9-0.1,1.2,0c1.2,0.1,1.9,0.8,2.7,2
		c5.8,9.2,13.4,16,24.3,18.4c3.7,0.8,6.7,2.8,8.5,6.2c1.4,2.6,2.8,5.2,4,7.8c0.7,1.5,1.4,2.9,2,4.4c2.3,5.6,15.6,34.5,27.5,60.6
		c0.1,0.2,0.2,0.4,0.3,0.6l3.8,0.7l4.5,0.8c-0.1-0.2-0.2-0.4-0.3-0.6c-13.4-29.9-30.5-66.5-34.6-74.5c-2.7-5.2-6.3-8.8-11.3-11
		c-1.6-0.7-3.3-1.3-5.2-1.7c-8.9-2-15.3-7.7-20.5-15c3.6-2.3,6.9-4.4,6.4-9.2c0-0.3,0.4-0.6,0.5-0.9c0.9-1.8,1.9-3.6,3-5.9
		c0.6-0.2,1.2-0.4,1.9-0.6c3.5-1.1,7.1-2.4,9.7-5.4c1.1-1.3,2.1-2.9,2.7-5c0.1-0.4,0.8-0.7,1.3-0.9c3.3-0.9,5.7-2.6,5.8-6.4
		c0.9,0.2,1.7,0.4,2.4,0.5c3.8,0.8,4.7,2.6,3.1,6.3c-0.5,1.1-1.3,2.1-1.6,3.3c-0.7,2.5-1.5,5.1-2.1,7.6c-0.4,1.5-0.6,3-0.7,4.5
		c-0.4,7.1,3.1,11.7,9.5,14.3c-0.2-0.7-0.4-1.5-0.6-2.2c-0.5-1.9-1-3.8-1.8-5.6c-1.3-2.9-1.7-5.8-1.4-8.7c0.2-2.3,0.9-4.6,1.9-6.9
		c0.7-1.6,1.6-3.2,2.2-4.8c1.4-3.5,0.7-7-0.6-10.3c-1.2-2.8-4-2.2-6.3-2.8c-0.7-0.2-1.5-0.3-2.2-0.5c-6-1.8-11.2-7.4-11.9-12.9
		c2.4,1.5,4.7,3,7.1,4.3c4.2,2.3,7.8,1.2,10-3.1c0.9-1.8,1.4-3.7,2.1-5.6c0.1-0.4,0.3-0.8,0.4-1.2c3.6,1.4,7.1,3.6,10.9,4.2
		c1.6,0.3,3.1,0.7,4.4,1.2c5.4,2.3,7.6,6.9,8.1,13.6c0.4,5.3,1.9,10.6,3.5,15.6c1,3,1.9,5.8,0.7,8.8c-1.1,2.8-1.6,5.6-1.6,8.2
		c0,0,0,0,0,0c0,1.9,0.3,3.8,0.8,5.6c0.9,3.1,2.3,6,4.2,9c4.7,7.3,8.6,15,13.3,22.2c0.8,1.2,3.5,5.2,7.5,11c1.8,2.7,3.9,5.8,6.2,9.1
		c10.2,15,23.9,35,33.5,48.8c0.7,1,1.3,1.9,1.9,2.8l8.5-4.1C182,333.6,179,329.1,175.7,324.3z M77.3,181.6c-1.8,6.7-2.6,7.1-8.8,4.1
		c-1.8-0.9-3.4-2.1-5.6-3.4c5-4.8,9.7-1.8,14.4-1.2C77.2,181.4,77.3,181.5,77.3,181.6z M37.2,234.4c-2.6,0.9-5.5,1-8.2,0.4
		c-2-0.5-3.9-1.3-5.4-2.6c-5.4-4.5-5.7-10.6-0.6-17c1.9,2.6,4.1,5,5.7,7.8c2.3,3.9,4.9,7,9.2,7.8c1.4,0.3,2.9,0.3,4.7,0.1
		C41.1,232.5,39.2,233.7,37.2,234.4z M38.9,224.6c-1.6-0.5-3-1.6-4.1-3.1c-0.3-0.5-0.7-0.9-1-1.4c-1.8-2.3-3.8-4.5-5.5-6.9
		c-3.1-4.2-1.8-9.4,2.7-11.1c2.2,4.5,4.8,8.8,7.8,12.6c0.5,0.6,1,1.3,1.5,1.8c1.9,2.3,4,4.4,6.3,6.4C44.2,225,41.4,225.5,38.9,224.6
		z M51.2,217.2c-0.1,0-0.2,0.1-0.4,0.1c-1,0.2-2.8-0.5-3.4-1.3c-1.5-1.8-3-3.7-4.5-5.5c-0.4-0.5-0.8-1-1.2-1.5c-1.8-2.3-3.5-4.6-5-7
		c-3.6-5.9-2.2-9.5,4.1-12.7c0.6-0.3,1.2-0.5,2-0.9c0.6,1.1,1.3,2.3,2,3.4c2.3,3.9,4.7,7.6,7.5,11.1c2.3,2.8,5,5.4,8.2,7.6
		c-0.8,1.9-1.9,3.3-3.3,4.3C55.4,216,53.3,216.7,51.2,217.2z M61.8,204.5c-1.9-1.6-3.7-3.3-5.2-5.2c-3-3.5-5.3-7.4-7.5-11.5
		c-1.5-2.9,0.8-9,4.3-11.4c1.6-1.1,3.3-2,5.1-2.9c2.6-1.4,4.8-0.7,6.9,1.5c-1.1,0.7-2,1.4-3.1,1.9c-4.4,1.9-6.3,4.9-5.1,9.5
		c1,3.8,2.3,7.4,4.4,10.5c1.6,2.3,3.7,4.4,6.4,6c0.4,0.2,0.7,0.5,1.1,0.8C66.3,206.7,64.8,206.9,61.8,204.5z"/>
</g>
<g>
	<path class="st10" d="M278.5,69.8c-0.7,6.5-2.8,12.9-4.1,19.3c0,0.1,0,0.2-0.1,0.3c-0.6,5-1.2,8.3-1.2,8.3
		c0.1,5.3-0.1,10.5-0.8,15.6c-0.3,2.1-0.6,4.2-1,6.3c-0.1,0.5-0.2,1-0.3,1.5c-0.3,1.6-0.7,3.1-1,4.6c-0.1,0.5-0.3,1-0.4,1.5
		c-0.7,2.8-1.6,5.6-2.5,8.3c-0.7,2.1-1.5,4.1-2.3,6.2c-0.3,0.7-0.5,1.4-0.8,2c-0.8,2-1.6,3.9-2.5,5.9c-0.2,0.4-0.4,0.8-0.6,1.2
		c0,0,0,0,0,0c-0.1,0.3-0.3,0.5-0.4,0.8c0,0,0,0.1-0.1,0.1c0,0.1-0.1,0.2-0.1,0.3v0c-0.1,0.3-0.3,0.5-0.4,0.8
		c-0.2,0.3-0.3,0.5-0.5,0.8c-2.3,3.8-5.4,7.2-9,9.8c-9.2,6.5-12.8,14.6-12.5,25.5c0.2,5.8,0.3,11.5,0.4,17.3
		c0.1,3.3,0.1,6.6,0.2,9.9c0.2,11.5,0.3,22.9,0.5,34.4c0,1.5,0,3.1,0.1,4.6c0,0.3,0,0.7,0,1c0,1.8,0.6,12.3,1.5,26.4v0
		c1,16.4,2.3,37.9,3.5,56.9c0.2,3.1,0.4,6.2,0.6,9.2c0.3,4.5,0.5,8.7,0.8,12.6c0,0.7,0.1,3,0.1,3.7l-10.1-1.8l-60.7-10.7l-1.9-0.3
		l-13.8-2.4h0l-0.8,0.4l-24.2-4.3l-2.6-0.5l-4.5-0.8c0-0.2,0-0.4,0.1-0.5c0.3-2.6,0.6-5.3,0.9-8.1c2.1-18.5,4.6-39,6.6-55.1
		c0.7-5.5,1.3-10.4,1.8-14.6c0.9-6.9,1.6-11.7,1.9-13.3c3.1-16.2,6.5-32.3,9.3-48.5c2.2-12.8,0.6-25.5-3.8-37.7
		c-0.9-2.5-2.6-4.9-4.4-7c-0.3-0.4-0.6-0.7-1-1.1c-4.4-4.8-9.4-9.1-13.7-14c-1.5-1.8-2.5-4.6-2.5-7c0.1-12,0.6-24.1,1-36.1
		c0-1,0.1-2,0.1-3c0.1-2.7,0.4-5.4,0.2-8.2c-0.3-4.4,2-8.6,5.9-10.8c3.3-1.9,6.4-4.2,9.5-6.3c-3.8-12.9-5.9-25.4,1-38
		c0.5-0.9,1.1-1.8,1.7-2.6c8.1-11.5,23.2-13.9,34.5-4.4c0.2-0.1,0.5-0.2,0.6-0.3c5.6-10,14.9-9.8,23.9-4.9
		c6.1,3.3,9.7,8.9,13.1,15.3c1-1.9,1.7-3.6,2.6-5.2c5.6-10.1,15.4-11.6,23.5-3.5c3.2,3.2,5.6,7.1,8.6,10.9c0.4-0.3,1-0.7,1.6-1.2
		c9.2-7.6,21.6-4.6,26.2,6.4c1.5,3.6,2.3,7.3,2.7,11.1C279.1,61.2,278.9,65.5,278.5,69.8z"/>
	<path class="st10" d="M154.4,178.6C154.3,178.6,154.3,178.6,154.4,178.6L154.4,178.6L154.4,178.6z"/>
	<path class="st11" d="M175.8,104.7c0,0,29.3,16.2,27.4,32.1c-1.1-0.2,29.5-20.6,45.5-27.6c16-7,25.7-19.9,25.7-19.9
		s-4.4-8.4-26.5-10.8c-22.2-2.4-60.6-9.3-60.6-9.3v15C187.3,84.1,171.2,95.5,175.8,104.7z"/>
	<path class="st11" d="M194.8,166.8c0,0-11.9,91.8-19.1,157.5c-0.5,5-1.1,9.9-1.6,14.5c-0.1,1.3-0.3,2.6-0.4,3.9
		c-0.3,3.3-0.7,6.5-1,9.5l-13.8-2.4h0l-0.8,0.4l-24.2-4.3l-2.6-0.5l-4.5-0.8c0-0.2,0-0.4,0.1-0.5c0.3-2.6,0.6-5.3,0.9-8.1
		c2.1-18.5,4.6-39,6.6-55.1c0.7-5.5,1.3-10.4,1.8-14.6c0.9-6.9,1.6-11.7,1.9-13.3c3.1-16.2,6.5-32.3,9.3-48.5
		c2.2-12.8,0.6-25.5-3.8-37.7c-0.9-2.5-2.6-4.9-4.4-7c-0.3-0.4-0.6-0.7-1-1.1c-4.4-4.8-9.4-9.1-13.7-14c-1.5-1.8-2.5-4.6-2.5-7
		c0.1-12,0.6-24.1,1-36.1c2.3,3.7,4.7,7.7,7.2,11.6c2.5,3.8,5,7.7,7.6,11.6c13.7,20.3,29.1,39.3,39.6,41.9
		C178.4,167.7,194.8,166.8,194.8,166.8z"/>
	<path class="st11" d="M154.4,178.6C154.3,178.6,154.3,178.6,154.4,178.6L154.4,178.6L154.4,178.6z"/>
	<path class="st12" d="M197.3,71.8c0,0-15.3,8.3-19.3,6.4c-4-1.9-4.9-6.4-4.9-6.4v-5.9l12.1-4.9l7.2-1.1l4.9,9.3V71.8z"/>
	<path class="st6" d="M278.6,56.9c-0.4-3.8-1.2-7.5-2.7-11.1c-4.6-11-17-14-26.2-6.4c-0.6,0.5-1.2,1-1.6,1.2
		c-3-3.8-5.4-7.7-8.6-10.9c-8.1-8.2-17.9-6.6-23.5,3.5c-0.9,1.6-1.6,3.2-2.6,5.2c-3.4-6.3-7-12-13.1-15.3c-9-4.8-18.3-5.1-23.9,4.9
		c-0.1,0.2-0.4,0.2-0.6,0.3c-11.2-9.5-26.3-7.2-34.5,4.4c-0.6,0.8-1.2,1.7-1.7,2.6c-6.9,12.5-4.9,25-1,38c-3.2,2.1-6.3,4.4-9.5,6.3
		c-3.9,2.2-6.1,6.4-5.9,10.8c0.2,2.7-0.1,5.4-0.2,8.2c0,1-0.1,2-0.1,3c-0.4,12-0.8,24.1-1,36.1c0,2.3,1,5.2,2.5,7
		c4.3,4.9,9.3,9.2,13.7,14c0.3,0.3,0.6,0.7,1,1.1c1.8,2.1,3.5,4.5,4.4,7c4.5,12.2,6.1,24.9,3.8,37.7c-2.8,16.2-6.3,32.3-9.3,48.5
		c-0.3,1.6-1,6.4-1.9,13.3c-0.5,4.2-1.2,9.1-1.8,14.6c-2,16.1-4.4,36.6-6.6,55.1c-0.3,2.8-0.6,5.4-0.9,8.1c0,0.2,0,0.4-0.1,0.5
		l4.5,0.8l2.6,0.5c0-0.2,0-0.4,0.1-0.5c2.3-18.9,4.9-40.6,6.6-55.3c0.8-6.6,1.4-11.8,1.8-14.7c0.2-1.6,0.3-2.4,0.3-2.5
		c4.1-20.7,8-41.5,11.6-62.3c1.9-10.8,2.2-21.5,0-31.8c0,0,0,0,0,0v0c-1.2-5.6-3.1-11-6-16.2c-2.6-4.7-6-8.9-9.5-13.1
		c-2.1-2.5-4.3-5-6.2-7.6c-1.1-1.5-2.2-3.4-2.2-5.1c-0.1-7.7-0.1-15.5-0.1-23.2c0-9.2,0-18.4,0-27.7c6.7-3.5,14.3-6.6,21-11
		c6.3-4.2,13.1-3.2,19.6-4.7c0.8,6.5,3,10.3,7.3,10.5c2.9,0.1,5.8-0.4,9-1c1.5-0.3,3.2-0.6,4.9-0.9c-1.8,1.8-3.3,3.8-4.9,5.5
		c-1.3,1.4-2.6,2.7-4.2,3.5c0,0,0,0,0,0c0,0-0.1,0.1-0.1,0.1c-5.6,2.9-8.6,7.4-11.2,12.6c-3,5.8-2.6,8,3.1,11.4
		c3.7,2.2,7.6,4,11.5,5.7c5.9,2.6,9.6,6.8,10.8,13.1c0.6,2.8,1.1,5.5,1.6,8.3c0.8,4.5,1.7,9.1,2.5,13.8c2.9-5.6,3.8-11.3,3.2-17.1
		c-0.1-0.9-0.2-1.8-0.4-2.8c-0.3-1.8-0.8-3.7-1.3-5.5c-2.1-6.8-6.2-11.6-12.8-14.4c-1.6-0.7-3.3-1.4-4.9-2h0c-2-0.8-4-1.7-5.9-2.7
		c-1.5-0.7-3.7-2.6-3.5-3.4c0.8-2.7,1.8-6,3.9-7.5c3.9-2.7,8.6-4.2,13.5-6.4c3.9,2.6,8.8,2.5,13.6,0c1.9-1,3-0.7,4.3,0.9
		c3.6,4.3,8.4,6.4,14,6c3.1-0.2,6.2-1,9.4-1.6c4.9,7.3,13.1,10.1,23.1,8.1h0c2.2-0.5,4.6-1.2,7-2.1c-2,13.7-6.9,26-11.6,38.4
		c-2.2,5.7-5.9,10.7-10.7,14.4c-3.4,2.6-6.5,5.6-9.5,8.7c-0.4,0.4-0.8,0.8-1.2,1.3c-3,3.3-4.4,7.3-4.3,11.8
		c0.2,5.6,0.4,11.2,0.6,16.8c0.3,5.8,0.9,16.4,1.7,29.8c0.5,7.9,1,16.7,1.5,26.1c0.6,10.5,1.3,21.6,2,32.8c0.1,2.7,0.3,5.3,0.5,8
		c0.2,2.8,0.3,5.7,0.5,8.5c1.2,20.3,2.4,40.1,3.4,55.9c0,0.3,0,0.7,0.1,1c0.1,1.8,0.2,3.6,0.3,5.3v0c0,0.6,0.1,1.2,0.1,1.8
		c0,0.1,0,0.7,0,0.9l7.4,1.3c0-0.6-0.2-3.1-0.3-3.7c-0.2-3.9-0.5-8.1-0.8-12.6c-0.2-3-0.4-6.1-0.6-9.2c-1.2-19-2.5-40.5-3.5-56.9v0
		c-0.9-14.2-1.5-24.6-1.5-26.4c0-0.3,0-0.7,0-1c0-1.5,0-3.1-0.1-4.6c-0.2-11.5-0.3-22.9-0.5-34.4c0-3.3-0.1-6.6-0.2-9.9
		c-0.1-5.8-0.2-11.5-0.4-17.3c-0.3-10.9,3.3-19,12.5-25.5c3.7-2.6,6.7-5.9,9-9.8c0.2-0.3,0.3-0.5,0.5-0.8c0.1-0.3,0.3-0.5,0.4-0.8
		c0.1-0.1,0.1-0.2,0.2-0.3c0,0,0-0.1,0.1-0.1c0.1-0.3,0.3-0.5,0.4-0.8c0,0,0,0,0,0c0.2-0.4,0.4-0.8,0.6-1.2c0.9-2,1.7-3.9,2.5-5.9
		c0.3-0.7,0.5-1.4,0.8-2c0.8-2,1.5-4.1,2.3-6.2c0.9-2.8,1.8-5.5,2.5-8.3c0.1-0.5,0.3-1,0.4-1.5c0.4-1.5,0.7-3.1,1-4.6
		c0.1-0.5,0.2-1,0.3-1.5c0.4-2.1,0.7-4.2,1-6.3c0.7-5.1,0.9-10.3,0.8-15.6c-0.1-2.8,0.6-5.6,1.2-8.3c0-0.1,0.1-0.2,0.1-0.3
		c1.4-6.5,3.5-12.8,4.1-19.3C278.9,65.5,279.1,61.2,278.6,56.9z M178.3,67.8c3.3-1.1,6.3-2.7,9.6-3.8c1-0.3,3-0.2,3.4,0.4
		c0.7,1.4,1.4,4.2,0.8,4.7c-0.3,0.2-0.6,0.5-0.9,0.7h0c-1.3,0.9-2.6,1.8-3.9,2.7c-2.2,1.4-4.4,2.8-6.6,4.2c-3.3-0.6-4.9-2-5.6-4.6
		C174.4,69.5,176.1,68.6,178.3,67.8z M170.4,61.9c-3.1,0.7-6.3,1.3-9.5,1.3c-4.9,0-9.2,1.3-13,4.3c-1.4,1.1-3,2-5.3,3.5
		c-0.5-12.6-3.5-24.4,4.2-35.3c0.4-0.6,0.9-1.2,1.5-1.7c4.9-4.7,14.3-6.4,19.6-2.7c1.9,1.3,3.3,4.3,3.6,6.8c0,0,0,0,0,0.1
		c0.8,7.1,1,14.2,1.2,21.3C172.7,60.3,171.3,61.7,170.4,61.9z M206,81.6c-1.8,4.2-5.7,4.1-10.1,4.3c3.1-4.8,4.5-9.5,4.6-14.5
		c0-1.7-0.1-3.3-0.4-5.1c-1.8-9.9-7-12.8-16.3-9.1c-1,0.4-2,0.8-3.9,1.5c-0.2-6.7-0.6-13.1-0.7-19.4c0-0.9,0-1.8,0-2.7
		c0-6.7,7.1-11.8,13.6-10.2c4.4,1.1,7.8,3.6,10.3,7.3c2.3,3.6,4.1,7.1,5.4,10.8c3.3,9.2,3.3,18.7,0.7,28.3
		C208.2,75.8,207.2,78.7,206,81.6z M235.7,84.3c-3.7,5.3-11.1,7.5-16.7,5.1c-2.3-1-4.3-2.7-6.7-4.2c1.6-3.7,2.9-7.4,3.8-11.2
		c2.2-9.1,2.3-18.3,0-27.8c0-0.1,0-0.2-0.1-0.3c-0.2-0.6-0.3-1.5-0.1-1.8c2.6-3.7,4.9-7.6,8-10.9c2.8-3,5.8-2.7,9.1,0.4
		c5.2,4.7,8.3,10.5,9.8,17.1c0.3,1.4,0.6,2.8,0.8,4.2c1,8.1-0.5,15.6-3.9,22.6C238.7,79.8,237.3,82.1,235.7,84.3z M248.3,96.1
		c-3.1-0.6-6-2-9.3-3.1c3.8-4.7,6.8-9.6,8.9-14.6c3.5-8.2,4.7-16.9,3.3-26.3c-0.1-0.7-0.3-1.5-0.4-2.2c-0.2-1.1,0.2-2.7,0.9-3.6
		c2.5-3,5.7-4.6,9.7-4c4.2,0.7,6.6,3.5,7.4,7.3c0.4,2,0.8,3.9,1.1,5.8c1.4,9.5,0.8,19-2.6,28.1c-0.6,1.5-1.2,3-2,4.5
		C261.7,95.3,256.4,97.8,248.3,96.1z"/>
</g>
</svg>
